<svg width="252" height="242" viewBox="0 0 252 242" fill="none" xmlns="http://www.w3.org/2000/svg">
<path d="M81.2843 18.9854C81.2843 19.2751 81.2918 19.563 81.3065 19.849L80.5073 20.1584L81.392 22.4819L111.977 102.812L50.3846 53.3439C47.5043 48.5378 42.2448 45.3209 36.234 45.3209C27.1294 45.3209 19.7487 52.7016 19.7487 61.8062C19.7487 70.9109 27.1294 78.2916 36.234 78.2916C40.8185 78.2916 44.9659 76.4202 47.954 73.3997L96.5571 111.506L35.1233 113.568C33.5629 106.086 26.9305 100.465 18.9854 100.465C9.88075 100.465 2.5 107.846 2.5 116.951C2.5 126.055 9.88075 133.436 18.9854 133.436C21.2348 133.436 23.379 132.986 25.3326 132.17L102.55 128.334L34.0969 173.18C26.1961 174.4 20.1472 181.229 20.1472 189.472C20.1472 198.576 27.5279 205.957 36.6325 205.957C45.7371 205.957 53.1179 198.576 53.1179 189.472C53.1179 186.924 52.5401 184.512 51.5084 182.358L107.008 145.06L89.3344 206.382C88.4392 206.231 87.5194 206.153 86.5814 206.153C77.4768 206.153 70.096 213.533 70.096 222.638C70.096 231.743 77.4768 239.123 86.5814 239.123C93.4745 239.123 99.3796 234.893 101.841 228.886L102.011 228.931L102.661 226.531L125.299 142.957L147.092 223.001C147.248 223.803 147.461 224.584 147.729 225.34L148.026 226.43L148.68 228.833L149.341 228.656C152.264 233.266 157.412 236.326 163.275 236.326C172.379 236.326 179.76 228.946 179.76 219.841C179.76 210.736 172.38 203.356 163.275 203.356C162.02 203.356 160.798 203.496 159.624 203.761L143.008 145.442L197.237 182.127C196.275 184.221 195.738 186.55 195.738 189.006C195.738 198.11 203.119 205.491 212.224 205.491C221.328 205.491 228.709 198.11 228.709 189.006C228.709 181.435 223.606 175.057 216.652 173.122L147.514 127.954L226.57 131.779C228.427 132.504 230.449 132.902 232.563 132.902C241.668 132.902 249.048 125.521 249.048 116.417C249.048 107.312 241.668 99.9315 232.563 99.9315C224.242 99.9315 217.36 106.097 216.238 114.109L155.241 111.875L205.656 72.5957C208.628 75.501 212.695 77.2916 217.179 77.2916C226.284 77.2916 233.665 69.9109 233.665 60.8062C233.665 51.7016 226.284 44.3209 217.179 44.3209C212.116 44.3209 207.585 46.6037 204.561 50.1964L138.671 103.257L166.414 30.107C169.095 27.1752 170.73 23.2713 170.73 18.9854C170.73 9.88076 163.35 2.5 154.245 2.5C145.14 2.5 137.76 9.88075 137.76 18.9854C137.76 25.3809 141.401 30.9258 146.724 33.6593L125.763 90.9485L105.044 33.7832C110.501 31.0958 114.255 25.479 114.255 18.9854C114.255 9.88075 106.874 2.5 97.7697 2.5C88.6651 2.5 81.2843 9.88075 81.2843 18.9854Z" fill="#FEFFA5" stroke="#232020" stroke-width="5"/>
</svg>
