<svg width="342" height="342" viewBox="0 0 342 342" fill="none" xmlns="http://www.w3.org/2000/svg">
<path d="M238.604 69.4437C214.021 53.0795 184.337 46.1873 155.059 50.0459C125.781 53.9045 98.8963 68.2518 79.3926 90.4262C59.889 112.601 49.0904 141.097 49.0003 170.628C48.9102 200.159 59.5347 228.72 78.9028 251.013C98.2708 273.306 125.067 287.817 154.321 291.855C183.576 295.892 213.301 289.181 237.983 272.967C262.665 256.753 280.628 232.137 288.54 203.685C296.452 175.233 293.775 144.878 281.006 118.249L171 171L238.604 69.4437Z" fill="#B960FF"/>
<path d="M115.198 62.5098C100.951 69.8379 88.2868 79.9004 77.9285 92.1228C67.5702 104.345 59.7207 118.488 54.8282 133.744C49.9356 149 48.0959 165.07 49.414 181.037C50.7321 197.004 55.1822 212.555 62.5103 226.802C69.8383 241.049 79.9008 253.714 92.1232 264.072C104.346 274.43 118.488 282.28 133.744 287.172C149 292.065 165.071 293.904 181.038 292.586C197.005 291.268 212.556 286.818 226.803 279.49L171 171L115.198 62.5098Z" fill="#4FE25E"/>
<path d="M158.041 292.31C179.964 294.652 202.111 291.009 222.129 281.769C242.146 272.53 259.286 258.038 271.726 239.836L171 171L158.041 292.31Z" fill="#3785CD"/>
<path d="M237.396 68.6497C214.866 54.0342 188.143 47.261 161.371 49.3806C134.599 51.5001 109.275 62.394 89.3253 80.3727C69.3758 98.3514 55.9159 122.41 51.0331 148.818C46.1503 175.226 50.1174 202.507 62.3192 226.431L171 171L237.396 68.6497Z" fill="#FDFF66"/>
<path d="M236.635 68.16C219.453 57.1943 199.798 50.7081 179.465 49.294C159.131 47.8798 138.767 51.5828 120.233 60.0646C101.699 68.5464 85.585 81.5367 73.3635 97.849C61.142 114.161 53.2024 133.276 50.2697 153.446L171 171L236.635 68.16Z" fill="#FD993D"/>
<path d="M98.0511 73.2123C114.002 61.3128 132.622 53.4961 152.287 50.4437C171.953 47.3912 192.066 49.1958 210.874 55.6999C229.681 62.2041 246.613 73.2104 260.191 87.7592C273.769 102.308 283.582 119.958 288.774 139.169L171 171L98.0511 73.2123Z" fill="#E43A44"/>
</svg>
