<svg width="224" height="272" viewBox="0 0 224 272" fill="none" xmlns="http://www.w3.org/2000/svg">
<circle cx="112" cy="80" r="80" fill="#E6CC4E"/>
<path d="M224 223.384C224 290.763 189.379 267.384 122 267.384C54.6213 267.384 0 212.763 0 145.384C0 78.0054 54.6213 191.384 122 191.384C189.379 191.384 224 156.005 224 223.384Z" fill="#6C553A"/>
<path d="M93.6535 94.8913C95.7843 96.6992 98.1732 98.1842 100.82 99.3465C103.468 100.444 106.599 100.993 110.215 100.993C114.476 100.993 117.834 100.121 120.287 98.3779C122.806 96.5701 124.065 94.1488 124.065 91.1142C124.065 89.8228 123.871 88.6606 123.483 87.6275C123.161 86.5299 122.483 85.4968 121.45 84.5283C120.417 83.5598 118.964 82.5913 117.091 81.6228C115.219 80.6543 112.798 79.589 109.828 78.4268C106.599 77.2 103.887 75.9732 101.692 74.7464C99.4969 73.4551 97.7213 72.0992 96.3654 70.6787C95.0095 69.1937 94.0087 67.6118 93.363 65.9331C92.7819 64.1897 92.4913 62.1882 92.4913 59.9283C92.4913 57.9267 92.8787 56.022 93.6535 54.2141C94.4284 52.3417 95.5583 50.7275 97.0433 49.3716C98.5929 47.9512 100.465 46.7889 102.661 45.885C104.856 44.9165 107.374 44.3031 110.215 44.0448L109.44 33.0039H117.963L117.091 44.0448C119.997 44.2386 122.644 44.6905 125.033 45.4008C127.487 46.111 129.876 47.0149 132.2 48.1126L129.101 55.3764C127.035 54.2141 124.646 53.2134 121.934 52.374C119.287 51.5346 116.478 51.1149 113.508 51.1149C109.569 51.1149 106.47 51.8897 104.21 53.4393C101.95 54.989 100.82 56.9905 100.82 59.4441C100.82 60.6063 100.982 61.6716 101.305 62.6401C101.628 63.5441 102.273 64.448 103.242 65.3519C104.21 66.1913 105.566 67.063 107.309 67.9669C109.117 68.8708 111.474 69.8394 114.38 70.8724C117.866 72.1638 120.772 73.4874 123.096 74.8433C125.485 76.1992 127.39 77.652 128.81 79.2016C130.231 80.7512 131.232 82.4299 131.813 84.2378C132.458 85.9811 132.781 87.9181 132.781 90.0488C132.781 92.6315 132.329 94.9559 131.425 97.022C130.586 99.0882 129.359 100.896 127.745 102.446C126.195 103.931 124.323 105.157 122.128 106.126C119.932 107.094 117.543 107.74 114.961 108.063L115.832 119.201H107.309L108.084 108.354C104.21 108.095 100.659 107.417 97.4307 106.32C94.2024 105.222 91.5228 103.802 89.3921 102.058L93.6535 94.8913Z" fill="#232020"/>
</svg>
