<svg width="353" height="373" viewBox="0 0 353 373" fill="none" xmlns="http://www.w3.org/2000/svg">
<path d="M61 103.262C61 94.7984 66.321 87.2085 74.3616 84.5671C132.309 65.5301 169.877 64.7918 227.885 84.4803C235.806 87.1686 241 94.6962 241 103.061V120.461C241 134.61 226.696 144.223 213.222 139.906C167.822 125.361 134.042 125.649 88.6102 140.111C75.1865 144.385 61 134.776 61 120.689V103.262Z" fill="#232020"/>
<path d="M290.462 138.385C298.519 151.505 289.351 168.426 273.961 168.843L184.528 171.267C169.138 171.684 159.068 155.284 166.402 141.747L209.019 63.0844C216.353 49.5474 235.591 49.0261 243.647 62.146L290.462 138.385Z" fill="#232020"/>
<path d="M291 269.738C291 278.202 285.679 285.791 277.638 288.433C219.691 307.47 182.123 308.208 124.115 288.52C116.194 285.831 111 278.304 111 269.939L111 252.539C111 238.39 125.304 228.777 138.778 233.094C184.178 247.639 217.958 247.351 263.39 232.889C276.814 228.615 291 238.224 291 252.311L291 269.738Z" fill="#232020"/>
<path d="M61.7863 234.615C53.7299 221.495 62.8974 204.574 78.2878 204.157L167.72 201.733C183.11 201.316 193.181 217.716 185.847 231.253L143.23 309.916C135.896 323.453 116.658 323.974 108.601 310.854L61.7863 234.615Z" fill="#232020"/>
</svg>
